/* XPM */
static char * p_0_xpm[] = {
"49 20 542 2",
"  	c None",
". 	c #C1C3C0",
"+ 	c #C3BEB8",
"@ 	c #C4BDB3",
"# 	c #C2BFB8",
"$ 	c #BFC3C2",
"% 	c #C2CBD0",
"& 	c #AF8181",
"* 	c #7A2926",
"= 	c #882424",
"- 	c #8E2426",
"; 	c #8C272B",
"> 	c #7F2D33",
", 	c #612C34",
"' 	c #8C8082",
") 	c #C5D2DB",
"! 	c #C4A9B0",
"~ 	c #8B302F",
"{ 	c #940D0A",
"] 	c #AD1114",
"^ 	c #AA0A12",
"/ 	c #980610",
"( 	c #7A060F",
"_ 	c #813C41",
": 	c #C6AFA9",
"< 	c #C1D9C3",
"[ 	c #B1DAB8",
"} 	c #B6D6AD",
"| 	c #BED8A9",
"1 	c #C7D7AA",
"2 	c #C5D4A9",
"3 	c #C1D6AF",
"4 	c #BED8B5",
"5 	c #B7D8BB",
"6 	c #B4D7BF",
"7 	c #BFD6C4",
"8 	c #D3CAC1",
"9 	c #D9C0BC",
"0 	c #C5ACA7",
"a 	c #C6B8AF",
"b 	c #C8CFBF",
"c 	c #BCD2BD",
"d 	c #B4D4BD",
"e 	c #B0D3BF",
"f 	c #C8CDC6",
"g 	c #C1ABAE",
"h 	c #98555C",
"i 	c #8A0C0D",
"j 	c #AA0708",
"k 	c #B80A0C",
"l 	c #B00A0E",
"m 	c #9E0F13",
"n 	c #872321",
"o 	c #B4887B",
"p 	c #DED7BD",
"q 	c #CED0A9",
"r 	c #C8C894",
"s 	c #CEBF7A",
"t 	c #DCC172",
"u 	c #EAC672",
"v 	c #EECA76",
"w 	c #E9D380",
"x 	c #E3DE8A",
"y 	c #CBDE82",
"z 	c #C0E186",
"A 	c #BCDD8C",
"B 	c #B7DB93",
"C 	c #B2D89D",
"D 	c #AFD6A9",
"E 	c #ACD5B5",
"F 	c #D4D3BE",
"G 	c #CAA794",
"H 	c #B7736A",
"I 	c #974440",
"J 	c #73241D",
"K 	c #C58A7C",
"L 	c #FFE6CD",
"M 	c #E0DDBE",
"N 	c #D5E3BF",
"O 	c #D3E9C3",
"P 	c #CAE2BE",
"Q 	c #CADDBD",
"R 	c #D1DABF",
"S 	c #DFD4C2",
"T 	c #BF9891",
"U 	c #772623",
"V 	c #A61A1B",
"W 	c #BD0F11",
"X 	c #BE050A",
"Y 	c #B90A0F",
"Z 	c #A8171A",
"` 	c #A64743",
" .	c #DFBFB0",
"..	c #C8C8AE",
"+.	c #CFD1AC",
"@.	c #C8C18D",
"#.	c #C4AC66",
"$.	c #C6A04B",
"%.	c #D2A144",
"&.	c #DDAD4B",
"*.	c #E2C05C",
"=.	c #E0D267",
"-.	c #DEE66F",
";.	c #D6E973",
">.	c #D5E87C",
",.	c #D1E687",
"'.	c #CBE493",
").	c #C2E0A0",
"!.	c #BCDDAE",
"~.	c #B7DCBA",
"{.	c #C2CEC4",
"].	c #DEC0B6",
"^.	c #CC746A",
"/.	c #AB2A24",
"(.	c #A20A09",
"_.	c #B01817",
":.	c #920F07",
"<.	c #D2715E",
"[.	c #FFD5B3",
"}.	c #F9DEB3",
"|.	c #F2DFB4",
"1.	c #F0E3B7",
"2.	c #EDE0B6",
"3.	c #F0E2BB",
"4.	c #EFE2BF",
"5.	c #F3E0C0",
"6.	c #D1B399",
"7.	c #924D3D",
"8.	c #AF2825",
"9.	c #CF2025",
"0.	c #D51B20",
"a.	c #D11C21",
"b.	c #B81F24",
"c.	c #AC4548",
"d.	c #DEBCBA",
"e.	c #C2C9C1",
"f.	c #C0D0C3",
"g.	c #C6D6BB",
"h.	c #D1D9A8",
"i.	c #DBD895",
"j.	c #E7D688",
"k.	c #EBD780",
"l.	c #E4D77B",
"m.	c #DCD472",
"n.	c #E6DF75",
"o.	c #E5E176",
"p.	c #E3E17D",
"q.	c #DEE186",
"r.	c #D9E092",
"s.	c #D1E09D",
"t.	c #CBDFAA",
"u.	c #C5E0B7",
"v.	c #B7D8B9",
"w.	c #CFDBCF",
"x.	c #D5B2AE",
"y.	c #B65E5C",
"z.	c #A21211",
"A.	c #C0090B",
"B.	c #CD060D",
"C.	c #CB0A0D",
"D.	c #AC0E05",
"E.	c #EC7861",
"F.	c #FFD3AC",
"G.	c #FFDAAB",
"H.	c #FADAAB",
"I.	c #FCDDAF",
"J.	c #FDDAB0",
"K.	c #FFDFB6",
"L.	c #F6DDB5",
"M.	c #F5DDB7",
"N.	c #ECCFAD",
"O.	c #CF937B",
"P.	c #A02422",
"Q.	c #C01B21",
"R.	c #D61C1F",
"S.	c #D51B1E",
"T.	c #C11B1F",
"U.	c #9E2328",
"V.	c #B67D84",
"W.	c #D0CACE",
"X.	c #B4D2AE",
"Y.	c #BED199",
"Z.	c #D0D185",
"`.	c #DED47B",
" +	c #E2D877",
".+	c #E6D970",
"++	c #EAD568",
"@+	c #EAD465",
"#+	c #E7D46B",
"$+	c #E1D571",
"%+	c #DBD67A",
"&+	c #D4D884",
"*+	c #CCD88E",
"=+	c #C5D99A",
"-+	c #BDD8A3",
";+	c #B8D8AF",
">+	c #B2D9BA",
",+	c #CCB3AC",
"'+	c #BD6164",
")+	c #990E15",
"!+	c #B80F14",
"~+	c #C90A0F",
"{+	c #D3000B",
"]+	c #C80007",
"^+	c #AF0A06",
"/+	c #EA735F",
"(+	c #FFD1AB",
"_+	c #FEDCAC",
":+	c #FBDCAD",
"<+	c #FFE0B4",
"[+	c #FFDAB3",
"}+	c #FFDDB9",
"|+	c #F9D8B7",
"1+	c #F5D8B8",
"2+	c #FBDCBF",
"3+	c #F6BFAB",
"4+	c #C3595B",
"5+	c #B5242B",
"6+	c #CC1A1A",
"7+	c #D81815",
"8+	c #D91D1B",
"9+	c #B71B1C",
"0+	c #A4404A",
"a+	c #D0A8B3",
"b+	c #ADDAB9",
"c+	c #BFDEA3",
"d+	c #D3D884",
"e+	c #D9CC64",
"f+	c #DEC34E",
"g+	c #E4C244",
"h+	c #EDCA4A",
"i+	c #EFCC4E",
"j+	c #EFD254",
"k+	c #ECD75A",
"l+	c #E7DB61",
"m+	c #E0DD68",
"n+	c #D8DE72",
"o+	c #D0E07D",
"p+	c #C7DF89",
"q+	c #C0DF99",
"r+	c #B8DDA7",
"s+	c #B2DCB4",
"t+	c #C4CEC3",
"u+	c #966D69",
"v+	c #80121B",
"w+	c #AB1320",
"x+	c #B80D15",
"y+	c #BF0209",
"z+	c #D30310",
"A+	c #CC070E",
"B+	c #AC0A05",
"C+	c #E97460",
"D+	c #FFDAB1",
"E+	c #FAD6A4",
"F+	c #F5D3A3",
"G+	c #FAD8AA",
"H+	c #FBCFA8",
"I+	c #FFD5B2",
"J+	c #F8D8B2",
"K+	c #F3D7B2",
"L+	c #FADDBD",
"M+	c #FCC9B4",
"N+	c #F49998",
"O+	c #AE2D32",
"P+	c #B91712",
"Q+	c #C7150B",
"R+	c #D11911",
"S+	c #BD1E1B",
"T+	c #881A25",
"U+	c #A2707C",
"V+	c #AAD6BB",
"W+	c #C3E3B1",
"X+	c #D0DF8E",
"Y+	c #CBC660",
"Z+	c #CCB33F",
"`+	c #D3AF35",
" @	c #D9B53A",
".@	c #E0BE42",
"+@	c #E7CB4E",
"@@	c #EED95C",
"#@	c #EEE268",
"$@	c #E8E570",
"%@	c #DFE778",
"&@	c #D6E781",
"*@	c #CFE78F",
"=@	c #C7E79E",
"-@	c #BEE5AC",
";@	c #B7E1B9",
">@	c #C3C8C1",
",@	c #8C6665",
"'@	c #630C15",
")@	c #8C101B",
"!@	c #990209",
"~@	c #AE0107",
"{@	c #B70003",
"]@	c #B40003",
"^@	c #9A0700",
"/@	c #D1654B",
"(@	c #F0B186",
"_@	c #DFB682",
":@	c #E0B582",
"<@	c #E7BB8A",
"[@	c #E2B284",
"}@	c #DCB186",
"|@	c #D9BD8E",
"1@	c #D5BF90",
"2@	c #D2BB91",
"3@	c #E5B99C",
"4@	c #DF8A85",
"5@	c #8D191A",
"6@	c #8F0600",
"7@	c #9C0600",
"8@	c #A60900",
"9@	c #6C151E",
"0@	c #A27E8A",
"a@	c #B4D1BF",
"b@	c #BBD4AD",
"c@	c #BED996",
"d@	c #C7D683",
"e@	c #D9D27A",
"f@	c #E7D476",
"g@	c #EED873",
"h@	c #EBD871",
"i@	c #E5D671",
"j@	c #DFD573",
"k@	c #D8D578",
"l@	c #CFD57D",
"m@	c #C8D687",
"n@	c #C0D791",
"o@	c #BCDA9E",
"p@	c #B4DAA7",
"q@	c #AFD9B3",
"r@	c #ABD9BD",
"s@	c #C5D0CA",
"t@	c #D2BDBC",
"u@	c #955C63",
"v@	c #60050C",
"w@	c #8B1013",
"x@	c #990406",
"y@	c #A20002",
"z@	c #A30001",
"A@	c #8B0300",
"B@	c #C76246",
"C@	c #DCB17E",
"D@	c #DBB07D",
"E@	c #DEB380",
"F@	c #DCB07F",
"G@	c #D8B283",
"H@	c #D0B685",
"I@	c #CBB584",
"J@	c #D8BD92",
"K@	c #E2AF92",
"L@	c #9E3F3B",
"M@	c #790103",
"N@	c #910E06",
"O@	c #970D03",
"P@	c #960500",
"Q@	c #830B0C",
"R@	c #7E3D41",
"S@	c #C6B6B7",
"T@	c #C6CFB0",
"U@	c #CFD3A1",
"V@	c #CEDA90",
"W@	c #D5DA86",
"X@	c #E2D883",
"Y@	c #E8D97E",
"Z@	c #E1D873",
"`@	c #DED971",
" #	c #DDDB77",
".#	c #D8DB80",
"+#	c #D4DD8A",
"@#	c #CEDE93",
"##	c #C9DF9F",
"$#	c #C2E0AA",
"%#	c #B8DCB0",
"&#	c #B2DBB9",
"*#	c #CDD2CC",
"=#	c #CDB8B7",
"-#	c #966362",
";#	c #67120B",
">#	c #7D0A05",
",#	c #9A0B0D",
"'#	c #9E0C0C",
")#	c #810100",
"!#	c #C05C44",
"~#	c #F3B38D",
"{#	c #DDB383",
"]#	c #D9B382",
"^#	c #D6B582",
"/#	c #D8B887",
"(#	c #D6B789",
"_#	c #D1B689",
":#	c #D2B58B",
"<#	c #DEB693",
"[#	c #BC755F",
"}#	c #790303",
"|#	c #9A0910",
"1#	c #A40F11",
"2#	c #920007",
"3#	c #7A0C0F",
"4#	c #D1D9C4",
"5#	c #BFD9B6",
"6#	c #C3D7A4",
"7#	c #D4CA85",
"8#	c #DCC06C",
"9#	c #DDC05C",
"0#	c #E2C156",
"a#	c #E6C35B",
"b#	c #E0C85A",
"c#	c #E4E46A",
"d#	c #DCE86A",
"e#	c #DAE974",
"f#	c #D7E87E",
"g#	c #D0E88A",
"h#	c #CBE697",
"i#	c #C6E4A4",
"j#	c #BFE4B0",
"k#	c #B4DCB7",
"l#	c #B0DBBF",
"m#	c #C2CFC8",
"n#	c #CFC5BC",
"o#	c #A87E72",
"p#	c #793027",
"q#	c #6B0302",
"r#	c #7B0909",
"s#	c #79100A",
"t#	c #B76452",
"u#	c #E6B595",
"v#	c #D0B48D",
"w#	c #CCB78C",
"x#	c #C7B68A",
"y#	c #C9BA91",
"z#	c #C5B68F",
"A#	c #C9B995",
"B#	c #D2B99A",
"C#	c #CDA38B",
"D#	c #722619",
"E#	c #8D0C10",
"F#	c #A2070F",
"G#	c #A10207",
"H#	c #9A0004",
"I#	c #96000C",
"J#	c #A93E44",
"K#	c #E2C7BE",
"L#	c #B3CAB0",
"M#	c #BBDEB4",
"N#	c #BBD49B",
"O#	c #C4BC74",
"P#	c #C5A956",
"Q#	c #CAA94C",
"R#	c #D9B857",
"S#	c #E3CA6D",
"T#	c #D5E17B",
"U#	c #CCE580",
"V#	c #CAE387",
"W#	c #C5E18D",
"X#	c #BEDD97",
"Y#	c #B9DB9F",
"Z#	c #B3D9AA",
"`#	c #AED6B3",
" $	c #ADD7BF",
".$	c #CED6C9",
"+$	c #C2AEA5",
"@$	c #AA7474",
"#$	c #7A3538",
"$$	c #551513",
"%$	c #98685E",
"&$	c #D3BEA9",
"*$	c #B7B698",
"=$	c #BEC3A3",
"-$	c #BAC1A0",
";$	c #BBC4A7",
">$	c #BAC0A6",
",$	c #C2C4AE",
"'$	c #CCC0B0",
")$	c #C3A69E",
"!$	c #672624",
"~$	c #8C1116",
"{$	c #A70D15",
"]$	c #B00F15",
"^$	c #A7060C",
"/$	c #A60C18",
"($	c #AD3F48",
"_$	c #D0B7B3",
":$	c #A4D4BE",
"<$	c #ADDABB",
"[$	c #C5D7B1",
"}$	c #D2D5A8",
"|$	c #D5D8A3",
"1$	c #D5DDA4",
"2$	c #CCDDA7",
"3$	c #C3DBAB",
"4$	c #BBD6B3",
"5$	c #B9D6BA",
"6$	c #B7D5BB",
"7$	c #B2D4BC",
"8$	c #D2C8C9",
"9$	c #D9C0C4",
"0$	c #BDA8A7",
"a$	c #C1B6B0",
"b$	c #CDD8C8",
"c$	c #B9D0BC",
"d$	c #B9D5BF",
"e$	c #B6D2BC",
"f$	c #BFD1C5",
"g$	c #C1CBC3",
"h$	c #CBC2C3",
"i$	c #A77A7F",
"j$	c #7B161A",
"k$	c #A0191D",
"l$	c #A31312",
"m$	c #A51111",
"n$	c #A01115",
"o$	c #770E12",
"p$	c #937472",
"q$	c #C7DAD4",
"r$	c #B4CFBE",
"s$	c #B3CFB8",
"t$	c #B1D3B8",
"u$	c #AED6BC",
"v$	c #C8BFC2",
"w$	c #884C4C",
"x$	c #70130C",
"y$	c #821407",
"z$	c #800A00",
"A$	c #8A1408",
"B$	c #75170F",
"C$	c #562924",
"D$	c #9E9A97",
"E$	c #C1AFAD",
"F$	c #9A6D67",
"G$	c #A1675B",
"H$	c #AE6C5C",
"I$	c #B16C5D",
"J$	c #A46A5F",
"K$	c #876865",
"L$	c #9D9D9F",
"M$	c #C6D4D5",
"N$	c #CAD3D0",
"O$	c #CFD1CC",
"P$	c #CDD1D0",
"Q$	c #C8D3D7",
"                                                                                                  ",
"                                            . + @ @ # $                                           ",
"                                        % & * = - ; > , '                                         ",
"                                      ) ! ~ { ] ^ / ( _ : < [ } | 1 2 3 4 5 6                     ",
"            7 8 9 0 a b c d     e   f g h i j k l m n o p q r s t u v w x y z A B C D E           ",
"          F G H I J K L M N O P Q R S T U V W X Y Z `  ...+.@.#.$.%.&.*.=.-.;.>.,.'.).!.~.        ",
"      {.].^./.(._.:.<.[.}.|.1.2.3.4.5.6.7.8.9.0.a.b.c.d.e.f.g.h.i.j.k.l.m.n.o.p.q.r.s.t.u.v.      ",
"    w.x.y.z.A.B.C.D.E.F.G.H.I.J.K.L.M.N.O.P.Q.R.S.T.U.V.W.    X.Y.Z.`. +.+++@+#+$+%+&+*+=+-+;+>+  ",
"    ,+'+)+!+~+{+]+^+/+(+_+:+<+[+}+|+1+2+3+4+5+6+7+8+9+0+a+    b+c+d+e+f+g+h+i+j+k+l+m+n+o+p+q+r+s+",
"  t+u+v+w+x+y+z+A+B+C+D+E+F+G+H+I+J+K+L+M+N+O+P+Q+R+S+T+U+    V+W+X+Y+Z+`+ @.@+@@@#@$@%@&@*@=@-@;@",
"  >@,@'@)@!@~@{@]@^@/@(@_@:@<@[@}@|@1@2@3@4@5@6@7@8@{ 9@0@    a@b@c@d@e@f@g@h@i@j@k@l@m@n@o@p@q@r@",
"  s@t@u@v@w@x@y@z@A@B@(@C@D@E@F@G@H@I@J@K@L@M@N@O@P@Q@R@S@    T@U@V@W@X@Y@Z@`@ #.#+#@###$#%#&#    ",
"    *#=#-#;#>#,#'#)#!#~#{#]#^#/#(#_#:#<#[#}#|#x@1#2#3#T 4#5#6#7#8#9#0#a#b#c#d#e#f#g#h#i#j#k#l#    ",
"      m#n#o#p#q#r#s#t#u#v#w#x#y#z#A#B#C#D#E#F#G#H#I#J#K#L#M#N#O#P#Q#R#S# +T#U#V#W#X#Y#Z#`# $      ",
"          .$+$@$#$$$%$&$*$=$-$;$>$,$'$)$!$~${$]$^$/$($_$  :$<$[$}$|$1$2$3$4$5$6$7$                ",
"              8$9$0$a$b$c$d$e$    f$g$h$i$j$k$l$m$n$o$p$q$      r$s$t$u$                          ",
"                                        v$w$x$y$z$A$B$C$D$                                        ",
"                                          E$F$G$H$I$J$K$L$                                        ",
"                                            M$N$*#O$P$Q$                                          ",
"                                                                                                  "};
