/* XPM */
static char * projetil_89_20_xpm[] = {
"22 49 3 1",
" 	c None",
".	c #FFF83D",
"+	c #FFF833",
"                      ",
"                      ",
"                      ",
"                      ",
"                      ",
"                      ",
"                      ",
"                      ",
"                      ",
"          .           ",
"          .           ",
"          .           ",
"          .           ",
"          .           ",
"          .           ",
"          .           ",
"          .           ",
"          .           ",
"          .           ",
"          .           ",
"          .           ",
"          .           ",
"          .           ",
"          .           ",
"          .           ",
"          .           ",
"          .           ",
"          .           ",
"          .           ",
"          .           ",
"          .           ",
"          .           ",
"          .           ",
"          .           ",
"          .           ",
"          .           ",
"          .           ",
"          .           ",
"          .           ",
"          .           ",
"          .           ",
"          .           ",
"          .           ",
"          .           ",
"          .           ",
"          .           ",
"          +           ",
"                      ",
"                      "};
