/* XPM */
static char * tiro_xpm[] = {
"6 6 29 1",
" 	c None",
".	c #F5EE12",
"+	c #F6EE12",
"@	c #EEEE20",
"#	c #DAEE42",
"$	c #F6ED13",
"%	c #EFEE1E",
"&	c #DCEE40",
"*	c #C4EF6C",
"=	c #ADF093",
"-	c #F5ED11",
";	c #EEEE1F",
">	c #DBEE41",
",	c #C3EF6D",
"'	c #ABF199",
")	c #95F1C0",
"!	c #EDEE21",
"~	c #ACF19A",
"{	c #94F2C6",
"]	c #81F3E9",
"^	c #D8EE44",
"/	c #C3EF6E",
"(	c #ABF19B",
"_	c #93F2C7",
":	c #7FF2ED",
"<	c #76F3FD",
"[	c #ABF097",
"}	c #95F1C2",
"|	c #80F2EA",
" .+@# ",
".$%&*=",
"-;>,')",
"!>,~{]",
"^/(_:<",
" [}|< "};
