/* XPM */
static char *projetil_0[] = {
/* columns rows colors chars-per-pixel */
"46 19 2 1 ",
"  c #FFF83D",
". c None",
/* pixels */
"..............................................",
"..............................................",
"..............................................",
"..............................................",
"..............................................",
"..............................................",
"..............................................",
"..............................................",
"..............................................",
"..............................................",
".......                                       ",
"..............................................",
"..............................................",
"..............................................",
"..............................................",
"..............................................",
"..............................................",
"..............................................",
".............................................."
};
