/* XPM */
static char * projetil_178_40_xpm[] = {
"48 23 3 1",
" 	c None",
".	c #FCFF04",
"+	c #FFF83D",
"                                                ",
"                                                ",
"                                                ",
"                                                ",
"                                                ",
"                                                ",
"                                                ",
"                                                ",
"                                                ",
"                                                ",
" .....++++++++++++++++++++++++++++++++++        ",
"                                                ",
"                                                ",
"                                                ",
"                                                ",
"                                                ",
"                                                ",
"                                                ",
"                                                ",
"                                                ",
"                                                ",
"                                                ",
"                                                "};
