/* XPM */
static char * projetil_267_60_xpm[] = {
"22 49 4 1",
" 	c None",
".	c #FCFF04",
"+	c #FFF72E",
"@	c #FFF83D",
"                      ",
"           .          ",
"           +          ",
"           @          ",
"           @          ",
"           @          ",
"           @          ",
"           @          ",
"           @          ",
"           @          ",
"           @          ",
"           @          ",
"           @          ",
"           @          ",
"           @          ",
"           @          ",
"           @          ",
"           @          ",
"           @          ",
"           @          ",
"           @          ",
"           @          ",
"           @          ",
"           @          ",
"           .          ",
"           .          ",
"           .          ",
"           .          ",
"           .          ",
"           .          ",
"           .          ",
"           .          ",
"           .          ",
"           .          ",
"           .          ",
"           .          ",
"           .          ",
"           .          ",
"           .          ",
"           .          ",
"                      ",
"                      ",
"                      ",
"                      ",
"                      ",
"                      ",
"                      ",
"                      ",
"                      "};
