/* XPM */
static char * projetil_356_80_xpm[] = {
"48 23 4 1",
" 	c None",
".	c #FCFF04",
"+	c #FFF83D",
"@	c #FFF83A",
"                                                ",
"                                                ",
"                                                ",
"                                                ",
"                                                ",
"                                                ",
"                                                ",
"                                                ",
"                                                ",
"                                                ",
"                                                ",
"        .........................+++++++++++++@ ",
"                                                ",
"                                                ",
"                                                ",
"                                                ",
"                                                ",
"                                                ",
"                                                ",
"                                                ",
"                                                ",
"                                                ",
"                                                "};
